<?xml version="1.0" encoding="utf-8"?>
<!-- Generator: Adobe Illustrator 16.0.4, SVG Export Plug-In . SVG Version: 6.00 Build 0)  -->
<!DOCTYPE svg PUBLIC "-//W3C//DTD SVG 1.1//EN" "http://www.w3.org/Graphics/SVG/1.1/DTD/svg11.dtd">
<svg version="1.1" id="Layer_1" xmlns="http://www.w3.org/2000/svg" xmlns:xlink="http://www.w3.org/1999/xlink" x="0px" y="0px"
	 width="328px" height="328px" viewBox="16 0 328 328" enable-background="new 16 0 328 328" xml:space="preserve">
<path d="M180,14.909c82.224,0,149.091,66.867,149.091,149.091S262.224,313.091,180,313.091S30.909,246.224,30.909,164
	S97.776,14.909,180,14.909 M180,0C89.427,0,16,73.427,16,164c0,90.572,73.427,164,164,164c90.572,0,164-73.428,164-164
	C344,73.427,270.572,0,180,0L180,0z"/>
<path d="M189.803,260.909h-36.341v-85.728h-18.189v-29.557h18.151v-17.742c0-24.116,10.25-38.428,39.398-38.428h24.264v29.557
	h-15.17c-11.33,0-12.113,4.137-12.113,11.815l-0.037,14.797h27.508l-3.206,29.557h-24.265V260.909L189.803,260.909L189.803,260.909z
	"/>
</svg>
