<?xml version="1.0" encoding="utf-8"?>
<!-- Generator: Adobe Illustrator 16.0.4, SVG Export Plug-In . SVG Version: 6.00 Build 0)  -->
<!DOCTYPE svg PUBLIC "-//W3C//DTD SVG 1.1//EN" "http://www.w3.org/Graphics/SVG/1.1/DTD/svg11.dtd">
<svg version="1.1" id="Layer_1" xmlns="http://www.w3.org/2000/svg" xmlns:xlink="http://www.w3.org/1999/xlink" x="0px" y="0px"
	 width="328px" height="328px" viewBox="0.5 0 328 328" enable-background="new 0.5 0 328 328" xml:space="preserve">
<path fill="#FFFFFF" d="M164.5,14.909c82.224,0,149.091,66.867,149.091,149.091S246.724,313.091,164.5,313.091
	S15.409,246.224,15.409,164S82.276,14.909,164.5,14.909 M164.5,0C73.927,0,0.5,73.427,0.5,164c0,90.572,73.427,164,164,164
	c90.572,0,164-73.428,164-164C328.5,73.427,255.072,0,164.5,0L164.5,0z"/>
<path fill="#FFFFFF" d="M97.483,89.455v27.022c63.103,0.038,114.428,51.437,114.465,114.614h27.097
	c0-39.024-15.877-74.434-41.521-100.077C171.843,105.37,136.508,89.455,97.483,89.455L97.483,89.455L97.483,89.455z M97.409,137.611
	v27.023c17.63,0,34.365,6.933,46.852,19.456c12.524,12.486,19.419,29.223,19.419,46.927v0.074h27.171
	c-0.037-25.755-10.511-49.088-27.433-66.048C146.535,148.122,123.202,137.648,97.409,137.611L97.409,137.611L97.409,137.611z
	 M102.925,225.426L102.925,225.426L102.925,225.426L102.925,225.426L102.925,225.426L102.925,225.426z M129.501,198.925
	c3.429,3.429,5.516,8.088,5.554,13.269c0,5.182-2.087,9.803-5.517,13.232l0,0c-3.429,3.392-8.088,5.479-13.306,5.479
	s-9.877-2.087-13.307-5.516c-3.392-3.393-5.516-8.014-5.516-13.195c0-5.181,2.125-9.84,5.516-13.269
	c3.429-3.392,8.088-5.517,13.307-5.517C121.413,193.408,126.072,195.533,129.501,198.925L129.501,198.925L129.501,198.925z"/>
</svg>
