<?xml version="1.0" encoding="utf-8"?>
<!-- Generator: Adobe Illustrator 16.0.4, SVG Export Plug-In . SVG Version: 6.00 Build 0)  -->
<!DOCTYPE svg PUBLIC "-//W3C//DTD SVG 1.1//EN" "http://www.w3.org/Graphics/SVG/1.1/DTD/svg11.dtd">
<svg version="1.1" id="Layer_1" xmlns="http://www.w3.org/2000/svg" xmlns:xlink="http://www.w3.org/1999/xlink" x="0px" y="0px"
	 width="328px" height="328px" viewBox="16 0 328 328" enable-background="new 16 0 328 328" xml:space="preserve">
<path fill="#FFFFFF" d="M180,14.909c82.224,0,149.091,66.867,149.091,149.091S262.224,313.091,180,313.091
	S30.909,246.224,30.909,164S97.776,14.909,180,14.909 M180,0C89.427,0,16,73.427,16,164c0,90.572,73.427,164,164,164
	c90.572,0,164-73.428,164-164C344,73.427,270.572,0,180,0L180,0z"/>
<path fill="#FFFFFF" d="M185.144,164c0,20.574-16.176,37.273-36.154,37.273c-19.904,0-36.08-16.699-36.08-37.273
	c0-20.575,16.176-37.273,36.117-37.273C169.004,126.727,185.144,143.425,185.144,164"/>
<g>
	<ellipse fill="#FFFFFF" cx="210.974" cy="164" rx="34.253" ry="35.409"/>
	<path fill="#FFFFFF" d="M210.974,130.455c17.854,0,32.39,15.058,32.39,33.545s-14.536,33.545-32.39,33.545
		s-32.39-15.058-32.39-33.545S193.082,130.455,210.974,130.455 M210.974,126.727c-19.94,0-36.117,16.698-36.117,37.273
		c0,20.574,16.177,37.273,36.117,37.273s36.117-16.699,36.117-37.273C247.091,143.425,230.914,126.727,210.974,126.727
		L210.974,126.727z"/>
</g>
</svg>
