<?xml version="1.0" encoding="utf-8"?>
<!-- Generator: Adobe Illustrator 16.0.4, SVG Export Plug-In . SVG Version: 6.00 Build 0)  -->
<!DOCTYPE svg PUBLIC "-//W3C//DTD SVG 1.1//EN" "http://www.w3.org/Graphics/SVG/1.1/DTD/svg11.dtd">
<svg version="1.1" id="Layer_1" xmlns="http://www.w3.org/2000/svg" xmlns:xlink="http://www.w3.org/1999/xlink" x="0px" y="0px"
	 width="328px" height="328px" viewBox="16 0 328 328" enable-background="new 16 0 328 328" xml:space="preserve">
<path d="M180,14.909c82.224,0,149.091,66.867,149.091,149.091S262.224,313.091,180,313.091S30.909,246.224,30.909,164
	S97.776,14.909,180,14.909 M180,0C89.427,0,16,73.427,16,164c0,90.572,73.427,164,164,164c90.572,0,164-73.428,164-164
	C344,73.427,270.572,0,180,0L180,0z"/>
<path d="M243.55,125.572c6.635-4.174,11.741-10.809,14.126-18.748c-6.225,3.876-13.082,6.709-20.388,8.2
	c-5.852-6.56-14.2-10.66-23.444-10.66c-17.742,0-32.092,15.17-32.092,33.881c0,2.646,0.261,5.255,0.82,7.715
	c-26.688-1.417-50.356-14.872-66.197-35.409c-2.758,5.032-4.361,10.847-4.361,17.034c0,11.741,5.666,22.103,14.275,28.215
	c-5.255-0.186-10.213-1.714-14.537-4.249v0.41c0,16.4,11.07,30.116,25.756,33.21c-2.684,0.819-5.517,1.192-8.461,1.192
	c-2.05,0-4.1-0.186-6.039-0.596c4.063,13.455,15.953,23.258,30.005,23.519c-10.996,9.095-24.861,14.499-39.882,14.499
	c-2.609,0-5.144-0.148-7.678-0.447c14.201,9.58,31.085,15.207,49.237,15.207c59.078,0,91.355-51.622,91.355-96.387
	c0-1.491,0-2.944-0.074-4.398c6.262-4.771,11.741-10.734,16.027-17.555C256.223,122.925,250.035,124.752,243.55,125.572
	L243.55,125.572z"/>
</svg>
