<?xml version="1.0" encoding="utf-8"?>
<!-- Generator: Adobe Illustrator 16.0.4, SVG Export Plug-In . SVG Version: 6.00 Build 0)  -->
<!DOCTYPE svg PUBLIC "-//W3C//DTD SVG 1.1//EN" "http://www.w3.org/Graphics/SVG/1.1/DTD/svg11.dtd">
<svg version="1.1" id="Layer_1" xmlns="http://www.w3.org/2000/svg" xmlns:xlink="http://www.w3.org/1999/xlink" x="0px" y="0px"
	 width="328px" height="328px" viewBox="16 0 328 328" enable-background="new 16 0 328 328" xml:space="preserve">
<path fill="#FFFFFF" d="M180,14.909c82.224,0,149.091,66.867,149.091,149.091S262.224,313.091,180,313.091
	S30.909,246.224,30.909,164S97.776,14.909,180,14.909 M180,0C89.427,0,16,73.427,16,164c0,90.572,73.427,164,164,164
	c90.572,0,164-73.428,164-164C344,73.427,270.572,0,180,0L180,0z"/>
<path fill="#FFFFFF" d="M254.545,190.575v-53.15c0,0,0-25.606-25.68-25.606h-97.73c0,0-25.681,0-25.681,25.606v53.15
	c0,0,0,25.606,25.681,25.606h97.73C228.865,216.182,254.545,216.182,254.545,190.575 M208.961,164.075l-48.827,28.587v-57.176
	L208.961,164.075"/>
</svg>
